<?xml version="1.0" encoding="UTF-8"?>
<svg version="1.1" viewBox="0 0 38 38" xmlns="http://www.w3.org/2000/svg" >
<path d="m6.5395 10.174c0.74087-1.9521 2.3402-3.5433 3.9776-4.8388 1.2428-0.98334 2.7442-1.6603 4.2686-2.0934 0.97928-0.27824 2.0228-0.24623 3.0395-0.29793 1.2192-0.062001 2.453-0.18146 3.6623-0.014333 1.3681 0.18908 2.7596 0.49955 3.9836 1.1394 1.5644 0.8178 3.0371 1.9416 4.1018 3.3497 0.92807 1.2273 1.4852 2.5584 1.8353 4.2356" fill="none" stroke="context-fill" stroke-linecap="round" stroke-linejoin="round" stroke-width="5"/>
<path d="m28.226 30.536c-0.70555-0.2763-2.3346-2.1053-2.9331-3.5067-0.49228-1.1527-0.45226-2.4844-0.4153-3.7373 0.0444-1.5048 0.70551-2.9471 0.76257-4.4515 0.03729-0.98327 0.01802-2.0001-0.2766-2.9389-0.28837-0.91893-0.80814-1.7729-1.4214-2.5155-0.34895-0.42258-0.79818-0.75859-1.2526-1.0649-0.71179-0.47983-1.4418-1.0183-2.2822-1.1931-1.0508-0.21848-2.1788-0.06167-3.2115 0.23064-1.1549 0.32691-2.2868 0.87691-3.194 1.6628-1.2753 1.1047-1.9922 2.7241-2.9538 4.1105-0.56648 0.81674-0.9412 1.79-1.6583 2.4783-1.1594 1.1129-2.9893 2.5172-4.1134 2.515" fill="none" stroke="context-fill" stroke-linecap="round" stroke-linejoin="round" stroke-width="5"/>
<path d="m18.151 20.382c-0.87977 2.8877-1.8908 4.7404-3.507 6.6593-1.5229 1.8082-3.6279 3.3529-5.622 4.3235" fill="none" stroke="context-fill" stroke-linecap="round" stroke-linejoin="round" stroke-width="5"/>
<path d="m17.697 34.988c0.59174-0.87612 1.8836-1.8231 2.1397-2.9594 0.36042-1.599 0.57809 2.1145 1.0439 3.1239" fill="none" stroke="context-fill" stroke-linecap="round" stroke-linejoin="round" stroke-width="5"/>
<path d="m32.86 19.731-0.35597 2.9657" fill="none" stroke="context-fill" stroke-linecap="round" stroke-linejoin="round" stroke-width="5"/>
</svg>
