<?xml version="1.0" encoding="UTF-8" standalone="no"?>
<!DOCTYPE svg PUBLIC "-//W3C//DTD SVG 1.1//EN" "http://www.w3.org/Graphics/SVG/1.1/DTD/svg11.dtd">
<svg width="100%" height="100%" viewBox="0 0 16 16" version="1.1" xmlns="http://www.w3.org/2000/svg" xmlns:xlink="http://www.w3.org/1999/xlink" xml:space="preserve" xmlns:serif="http://www.serif.com/" style="fill-rule:evenodd;clip-rule:evenodd;stroke-linejoin:round;stroke-miterlimit:2;">
    <path d="M11.761,10.428L5.572,4.239C5.207,3.874 4.604,3.874 4.225,4.239C3.86,4.604 3.86,5.207 4.225,5.586L10.414,11.775C10.779,12.14 11.382,12.14 11.761,11.775C12.14,11.396 12.14,10.793 11.761,10.428Z" style="fill:rgb(180,190,254);fill-rule:nonzero;"/>
    <path d="M5.572,11.761L11.761,5.572C12.126,5.207 12.126,4.604 11.761,4.225C11.396,3.86 10.793,3.86 10.414,4.225L4.239,10.428C3.874,10.793 3.874,11.396 4.239,11.775C4.604,12.14 5.207,12.14 5.572,11.761Z" style="fill:rgb(180,190,254);fill-rule:nonzero;"/>
</svg>
