<?xml version="1.0" encoding="UTF-8" standalone="no"?>
<!DOCTYPE svg PUBLIC "-//W3C//DTD SVG 1.1//EN" "http://www.w3.org/Graphics/SVG/1.1/DTD/svg11.dtd">
<svg width="100%" height="100%" viewBox="0 0 16 16" version="1.1" xmlns="http://www.w3.org/2000/svg" xmlns:xlink="http://www.w3.org/1999/xlink" xml:space="preserve" xmlns:serif="http://www.serif.com/" style="fill-rule:evenodd;clip-rule:evenodd;stroke-linejoin:round;stroke-miterlimit:2;">
    <path d="M10.877,3.804L5.249,3.804C4.365,3.804 3.649,4.519 3.649,5.404L3.649,10.877C3.649,11.761 4.365,12.477 5.249,12.477L10.877,12.477C11.761,12.477 12.477,11.761 12.477,10.877L12.477,5.404C12.477,4.519 11.761,3.804 10.877,3.804ZM10.119,10.596L6.021,10.596C5.796,10.596 5.614,10.414 5.614,10.189L5.614,6.091C5.614,5.867 5.796,5.684 6.021,5.684L10.119,5.684C10.344,5.684 10.526,5.867 10.526,6.091L10.526,10.189C10.526,10.414 10.344,10.596 10.119,10.596Z" style="fill:rgb(176,255,160);fill-rule:nonzero;"/>
</svg>
